<?xml version="1.0" encoding="iso-8859-1"?>
<!-- Generator: Adobe Illustrator 19.0.0, SVG Export Plug-In . SVG Version: 6.00 Build 0)  -->
<svg xmlns="http://www.w3.org/2000/svg" xmlns:xlink="http://www.w3.org/1999/xlink" version="1.1" id="Capa_1" x="0px" y="0px" viewBox="0 0 365.6 365.6" style="enable-background:new 0 0 365.6 365.6;" xml:space="preserve" width="512px" height="512px">
<g>
	<g>
		<path d="M335.2,113c-16.8,0-30.4,13.6-30.4,30.4c0,3.2,0.4,6.4,1.6,9.6L246,185.8l-40.4-70c8.4-6.8,13.6-16.8,13.6-28.4    c0-20-16.4-36.4-36.4-36.4s-36.4,16.4-36.4,36.4c0,11.6,5.2,21.6,13.6,28.4l-40.4,70L59.2,153c0.8-2.8,1.6-6,1.6-9.6    c0-16.8-13.6-30.4-30.4-30.4C13.6,113,0,126.6,0,143.4s13.6,30.4,30.4,30.4c0.8,0,2,0,2.8,0l28.4,98.8c0,0.4,0.4,0.8,0.8,1.6    c-4,4.4-6.8,9.6-6.8,16c0,13.6,12,24.4,26.8,24.4h200.8c14.8,0,26.8-10.8,26.8-24.4c0-6-2.4-11.6-6.8-16c0.4-0.4,0.4-0.8,0.8-1.6    l28.4-98.8c0.8,0,2,0,2.8,0c16.8,0,30.4-13.6,30.4-30.4S352,113,335.2,113z M157.2,87.4c0-14,11.6-25.6,25.6-25.6    s25.6,11.6,25.6,25.6S196.8,113,182.8,113S157.2,101.4,157.2,87.4z M30,162.6c-10.4,0.4-19.2-8.4-19.2-19.2s8.8-19.2,19.2-19.2    c10.8,0,19.2,8.8,19.2,19.2C49.2,154.2,40.4,162.6,30,162.6z M283.2,303.4H82.4c-8.8,0-16-6-16-13.2s7.2-13.2,16-13.2h200.8    c8.8,0,16,6,16,13.2S292,303.4,283.2,303.4z M294.8,265.4h-11.2H82.4H70.8l-27.2-94.8c4-2,7.2-4.8,10-8l65.2,35.2    c0.8,0.4,1.6,0.8,2.8,0.8c2,0,3.6-0.8,4.8-2.8l43.2-74.4c4,1.6,8.8,2.4,13.2,2.4c4.8,0,9.2-0.8,13.2-2.4l43.2,74.4    c1.2,1.6,2.8,2.8,4.8,2.8c0.8,0,1.6-0.4,2.8-0.8l64.8-35.2c2.8,3.2,6,6,10,8L294.8,265.4z M335.2,163c-10.8,0-19.2-8.8-19.2-19.2    c0-10.8,8.8-19.2,19.2-19.2c10.8,0,19.2,8.8,19.2,19.2C354.8,154.2,346,163,335.2,163z" fill="#FFDA44"/>
	</g>
</g>
<g>
</g>
<g>
</g>
<g>
</g>
<g>
</g>
<g>
</g>
<g>
</g>
<g>
</g>
<g>
</g>
<g>
</g>
<g>
</g>
<g>
</g>
<g>
</g>
<g>
</g>
<g>
</g>
<g>
</g>
</svg>
